<?xml version="1.0" standalone="no"?>
<!DOCTYPE svg PUBLIC "-//W3C//DTD SVG 20010904//EN"
 "http://www.w3.org/TR/2001/REC-SVG-20010904/DTD/svg10.dtd">
<svg version="1.0" xmlns="http://www.w3.org/2000/svg"
 width="790.000000pt" height="790.000000pt" viewBox="0 0 790.000000 790.000000"
 preserveAspectRatio="xMidYMid meet">
<metadata>
Created by potrace 1.14, written by Peter Selinger 2001-2017
</metadata>
<g transform="translate(0.000000,790.000000) scale(0.100000,-0.100000)"
fill="#000000" stroke="none">
<path d="M4537 7828 c-11 -5 -31 -8 -46 -5 -16 3 -63 0 -107 -8 -61 -10 -82
-11 -93 -2 -12 9 -13 9 -7 0 4 -7 3 -13 -3 -13 -5 0 -13 5 -16 10 -4 6 -16 3
-32 -10 -14 -11 -29 -17 -34 -14 -5 3 -9 0 -9 -6 0 -6 -4 -9 -8 -6 -5 3 -30
-1 -55 -9 -26 -8 -47 -11 -47 -8 0 4 -5 2 -12 -5 -7 -7 -38 -12 -71 -12 -32 0
-67 -5 -78 -11 -26 -13 -157 -20 -165 -8 -10 17 -39 9 -67 -17 l-28 -26 -20
21 c-11 12 -25 21 -32 21 -7 0 -23 3 -37 7 -14 3 -22 3 -18 -1 3 -4 -7 -20
-23 -34 -24 -22 -30 -35 -31 -70 0 -24 2 -46 6 -49 3 -3 -5 -11 -18 -18 -12
-7 -52 -28 -89 -48 -36 -20 -83 -43 -104 -51 -83 -30 -129 -52 -144 -67 -12
-12 -29 -16 -60 -12 -38 4 -49 0 -75 -24 -17 -15 -36 -37 -42 -48 -6 -12 -21
-26 -34 -32 -44 -21 -153 -77 -193 -100 -22 -13 -48 -26 -57 -29 -10 -4 -16
-10 -13 -14 2 -4 -8 -13 -23 -21 -15 -8 -34 -19 -42 -26 -8 -7 -44 -33 -80
-60 -36 -26 -71 -55 -78 -65 -7 -10 -20 -18 -28 -18 -8 0 -14 -7 -14 -15 0 -9
-11 -20 -24 -25 -13 -5 -28 -15 -33 -22 -4 -7 -28 -29 -53 -47 -25 -19 -49
-41 -53 -48 -4 -7 -15 -13 -22 -13 -8 0 -15 -4 -15 -8 0 -5 -8 -17 -18 -28
-27 -30 -112 -142 -112 -148 0 -3 -17 -30 -37 -58 -38 -54 -82 -99 -129 -132
-16 -11 -46 -59 -75 -120 -27 -56 -56 -110 -64 -120 -8 -11 -15 -30 -15 -43 0
-13 -4 -23 -8 -23 -5 0 -18 -18 -31 -40 -24 -43 -23 -62 5 -148 17 -53 17 -72
-1 -96 -11 -14 -18 -16 -28 -8 -14 12 -93 34 -117 33 -69 -3 -275 -21 -315
-27 -46 -6 -133 -39 -145 -54 -3 -4 -20 -12 -38 -18 -18 -6 -51 -25 -72 -42
-21 -16 -42 -30 -47 -30 -19 0 -94 -90 -136 -162 -58 -100 -65 -115 -82 -181
-16 -66 -48 -122 -76 -137 -10 -6 -19 -21 -19 -35 0 -16 -11 -30 -33 -44 -55
-34 -137 -134 -137 -167 0 -9 -6 -25 -14 -33 -19 -21 -45 -126 -53 -209 -4
-42 -13 -76 -25 -91 -14 -19 -18 -41 -18 -108 0 -46 -5 -94 -12 -106 -17 -33
-34 -277 -27 -397 14 -227 76 -503 126 -557 13 -13 23 -28 23 -34 0 -5 11 -32
25 -59 14 -27 25 -56 25 -65 0 -8 4 -15 8 -15 5 0 17 -18 28 -40 10 -22 22
-40 25 -40 4 0 10 -16 13 -36 4 -19 14 -38 22 -41 7 -3 14 -13 14 -23 0 -9 32
-79 70 -156 39 -76 70 -146 70 -156 0 -13 -11 -19 -38 -24 -34 -5 -41 -12 -67
-61 -23 -45 -26 -56 -14 -64 8 -5 17 -9 22 -9 4 0 7 -16 7 -35 0 -25 -8 -44
-25 -61 -14 -14 -25 -29 -25 -33 0 -14 -21 -18 -107 -20 -160 -3 -237 -27
-249 -78 -9 -34 16 -132 38 -153 16 -15 17 -22 7 -67 -11 -49 -11 -53 26 -124
43 -84 65 -157 65 -213 0 -51 28 -155 46 -173 8 -8 14 -21 14 -29 0 -8 11 -27
24 -42 35 -38 70 -92 85 -129 7 -18 17 -33 21 -33 4 0 15 -16 25 -36 9 -20 27
-48 38 -62 65 -77 112 -128 122 -134 7 -4 63 -57 125 -118 62 -60 132 -124
156 -142 24 -18 44 -41 44 -50 0 -10 5 -18 10 -18 6 0 26 -17 45 -39 19 -21
51 -49 70 -62 19 -13 38 -32 41 -41 3 -10 9 -18 13 -18 4 0 26 -18 49 -39 22
-22 54 -42 69 -45 19 -4 33 -17 42 -36 8 -19 23 -32 39 -36 15 -4 57 -21 93
-39 88 -43 173 -72 249 -84 34 -6 67 -14 73 -19 7 -5 29 -13 51 -16 21 -4 61
-18 90 -31 28 -13 83 -35 121 -48 39 -13 86 -29 105 -36 19 -7 105 -14 190
-17 85 -3 202 -10 260 -17 116 -13 359 -16 376 -5 19 13 130 46 178 53 26 4
53 14 61 21 7 8 29 14 47 13 83 -2 162 25 209 72 22 22 64 25 76 6 9 -14 73
-47 92 -47 6 0 28 -10 49 -23 45 -28 128 -67 143 -67 16 0 158 -40 199 -56 19
-7 62 -16 95 -20 33 -4 63 -12 67 -18 10 -15 639 -11 728 5 41 7 76 21 94 36
33 27 90 53 117 53 11 0 19 6 19 13 0 8 11 20 25 27 14 7 25 17 25 22 0 4 9 8
19 8 11 0 23 5 26 10 3 6 17 10 30 10 14 0 29 9 35 20 6 11 20 20 30 20 11 0
20 4 20 9 0 5 14 11 30 15 17 3 63 21 103 40 40 19 96 40 125 47 48 12 112 56
112 77 0 4 15 13 33 20 17 7 45 19 60 27 16 8 39 15 51 15 42 0 90 22 156 71
36 27 74 58 85 69 12 11 24 20 29 20 4 0 27 16 50 35 24 19 48 35 54 35 7 0
15 12 18 27 8 29 26 53 41 53 13 0 83 74 83 86 0 6 19 32 43 57 69 75 117 143
117 168 0 21 108 224 126 238 10 6 17 28 54 151 13 41 32 94 42 117 33 73 66
215 73 318 8 122 -11 521 -30 613 -23 113 -77 278 -116 353 -97 187 -90 163
-100 314 l-10 140 44 40 c24 22 66 60 93 85 27 25 61 52 74 61 14 9 53 44 88
78 35 33 67 61 71 61 5 0 26 32 47 71 22 39 48 85 59 104 58 97 105 186 105
200 0 8 4 15 9 15 5 0 11 13 14 29 3 16 13 36 22 44 8 9 15 27 15 41 0 13 6
31 13 38 22 22 59 196 65 305 6 122 -12 212 -64 314 -18 37 -33 75 -34 85 0
11 0 59 0 107 0 66 -5 99 -20 130 -25 56 -70 207 -70 237 0 13 -11 71 -24 129
-23 100 -58 289 -71 376 -3 22 -15 83 -26 135 -32 152 -42 170 -156 287 -51
52 -93 99 -93 103 0 8 -53 63 -107 110 -77 67 -204 88 -308 51 -43 -15 -50
-21 -52 -46 -2 -24 -16 -44 -33 -45 -10 0 -40 86 -54 155 -15 70 -25 96 -60
148 -11 16 -26 41 -35 56 -63 110 -89 123 -203 108 -36 -5 -48 -3 -48 7 0 7
-16 45 -35 85 -19 39 -35 76 -35 81 0 6 -3 10 -7 10 -5 0 -26 17 -48 38 -22
20 -52 43 -67 49 -16 7 -28 17 -28 23 0 5 -8 10 -18 10 -10 0 -24 9 -32 20 -8
11 -19 20 -25 20 -7 0 -22 11 -35 25 -27 28 -74 55 -99 55 -9 0 -27 9 -41 20
-14 11 -35 20 -46 20 -12 0 -24 6 -27 14 -3 8 -18 20 -34 29 -86 45 -113 58
-158 76 -27 11 -49 24 -48 28 1 4 -13 9 -29 10 -17 1 -41 11 -52 21 -26 23
-72 36 -196 57 -116 20 -357 28 -383 13z m-227 -112 c0 -30 -8 -36 -41 -29
-21 4 -25 9 -21 29 3 19 11 24 33 24 24 0 29 -4 29 -24z m-313 -22 c-3 -3 -12
-4 -19 -1 -8 3 -5 6 6 6 11 1 17 -2 13 -5z m33 2 c0 -3 -4 -8 -10 -11 -5 -3
-10 -1 -10 4 0 6 5 11 10 11 6 0 10 -2 10 -4z m-268 -327 c46 -10 50 -13 30
-20 -13 -5 -28 -7 -33 -4 -5 4 -6 -1 -3 -9 3 -9 10 -16 15 -16 5 0 5 -10 0
-22 -5 -13 -16 -22 -25 -20 -12 2 -16 -5 -16 -28 0 -19 -5 -30 -14 -30 -8 0
-12 -9 -10 -26 2 -19 -1 -23 -10 -15 -7 6 -16 8 -19 4 -12 -12 -7 -22 15 -29
24 -7 53 -32 46 -39 -9 -10 -80 18 -85 33 -9 23 -23 32 -53 32 -22 -1 -23 -2
-7 -11 9 -5 17 -19 17 -29 0 -11 6 -20 14 -20 8 0 17 -6 20 -12 5 -10 7 -10
12 -1 4 10 11 10 25 2 11 -5 18 -13 15 -17 -2 -4 9 -23 25 -42 23 -29 30 -32
38 -20 8 12 11 12 17 -4 5 -12 2 -21 -8 -27 -9 -5 -19 -20 -22 -35 -6 -23 -11
-26 -49 -24 -66 4 -69 3 -56 -19 10 -15 8 -22 -10 -40 -11 -11 -25 -21 -31
-21 -5 0 -10 -7 -10 -15 0 -8 -4 -15 -8 -15 -4 0 -15 -13 -25 -29 -16 -27 -16
-29 3 -46 15 -13 17 -21 9 -31 -13 -16 -69 -8 -86 13 -6 8 -17 13 -25 11 -25
-5 -118 68 -118 94 0 6 -12 27 -27 47 -15 19 -28 40 -29 46 -1 5 -5 17 -8 25
-3 8 -1 22 4 30 8 13 12 13 32 1 22 -13 23 -13 6 6 -21 23 -23 44 -6 61 9 9 7
13 -5 18 -32 12 -17 21 36 21 28 0 46 -2 40 -4 -7 -3 -13 -9 -13 -14 0 -14 22
-11 41 7 10 9 23 13 29 9 9 -6 9 -10 -1 -16 -11 -7 -10 -11 6 -23 28 -21 32
-20 38 10 3 16 0 28 -9 31 -8 3 -14 13 -14 22 0 9 -11 21 -25 28 -24 11 -36 1
-15 -12 6 -4 8 -10 5 -15 -8 -12 -45 11 -45 27 0 7 -6 13 -12 14 -7 1 -2 4 12
9 l25 7 -25 11 c-14 6 -19 11 -11 11 8 1 11 7 7 17 -5 13 3 15 51 12 l57 -3
10 40 c20 73 47 97 120 106 81 10 92 10 148 -2z m-677 -29 c-3 -5 -11 -10 -16
-10 -6 0 -7 5 -4 10 3 6 11 10 16 10 6 0 7 -4 4 -10z m751 -25 c0 -19 -3 -35
-8 -35 -4 0 -8 16 -8 35 0 46 15 46 16 0z m1039 -88 c0 -26 -20 -25 -23 2 -3
16 1 22 10 19 7 -3 13 -12 13 -21z m-1095 -66 c0 -11 4 -21 10 -23 6 -2 6 -9
0 -18 -11 -18 -16 -13 -25 28 -4 20 -3 32 4 32 6 0 11 -9 11 -19z m-1040 -72
c0 -5 -7 -9 -15 -9 -8 0 -15 -7 -15 -15 0 -16 -16 -20 -24 -7 -7 12 33 54 45
47 5 -4 9 -10 9 -16z m1066 -16 c-7 -7 -26 7 -26 19 0 6 6 6 15 -2 9 -7 13
-15 11 -17z m-944 -225 c7 -20 -4 -58 -16 -58 -7 0 -18 6 -25 13 -11 10 -13 8
-8 -11 4 -19 -2 -26 -39 -44 -25 -11 -47 -18 -51 -15 -12 13 7 34 37 40 17 4
29 11 25 17 -3 5 -1 10 4 10 6 0 11 14 11 30 0 26 3 30 29 30 16 0 31 -5 33
-12z m1258 -138 c0 -5 -4 -10 -9 -10 -6 0 -13 5 -16 10 -3 6 1 10 9 10 9 0 16
-4 16 -10z m-632 -67 c5 -18 -29 -16 -53 3 -19 15 -18 15 14 12 19 -2 36 -9
39 -15z m585 -190 c-7 -2 -21 -2 -30 0 -10 3 -4 5 12 5 17 0 24 -2 18 -5z m77
-23 c0 -12 -8 -12 -35 0 -18 8 -17 9 8 9 15 1 27 -3 27 -9z m74 -30 c14 -5 26
-16 26 -25 0 -19 -19 -20 -26 0 -4 8 -12 15 -20 15 -8 0 -14 5 -14 10 0 12 2
12 34 0z m126 -62 l24 -9 -24 -13 c-32 -16 -62 -6 -67 23 -3 24 1 24 67 -1z
m-240 -14 c0 -8 -6 -14 -14 -14 -18 0 -29 27 -13 33 16 6 27 -1 27 -19z m365
-44 c3 -5 -1 -10 -9 -10 -9 0 -16 5 -16 10 0 6 4 10 9 10 6 0 13 -4 16 -10z
m-2885 -520 c0 -5 -4 -10 -10 -10 -5 0 -10 5 -10 10 0 6 5 10 10 10 6 0 10 -4
10 -10z m2942 -122 c-8 -8 -17 -8 -34 0 -22 10 -21 11 12 11 26 1 31 -2 22
-11z m-164 -15 c-10 -2 -26 -2 -35 0 -10 3 -2 5 17 5 19 0 27 -2 18 -5z
m-1143 -23 c3 -5 -1 -10 -9 -10 -9 0 -16 5 -16 10 0 6 4 10 9 10 6 0 13 -4 16
-10z m191 -139 c27 1 74 1 104 -1 126 -6 -14 -16 -265 -19 -167 -1 -289 -7
-340 -17 -93 -16 -145 -18 -145 -5 0 14 18 23 22 12 2 -6 21 -6 48 0 89 19
208 29 353 30 86 1 150 5 153 11 4 7 9 6 14 -2 4 -6 27 -10 56 -9z m328 5 c16
-3 31 -8 34 -11 8 -8 -110 -6 -149 2 -33 8 -33 8 16 13 28 3 55 4 60 3 6 -1
23 -5 39 -7z m-1084 -32 c0 -3 -6 -12 -14 -20 -13 -12 -15 -12 -19 4 -4 14 -6
14 -12 -5 -7 -22 -25 -32 -25 -14 0 27 15 41 41 41 16 0 29 -3 29 -6z m794
-25 c-3 -5 -11 -9 -19 -9 -8 0 -16 4 -19 9 -3 5 5 9 19 9 14 0 22 -4 19 -9z
m-1124 -9 c0 -5 -6 -10 -14 -10 -16 0 -76 -30 -61 -30 6 0 3 -5 -5 -10 -13 -8
-13 -10 2 -10 24 0 49 11 43 20 -6 9 42 23 55 15 4 -3 10 0 12 6 2 7 15 1 31
-14 14 -15 31 -27 37 -27 5 0 10 -5 10 -10 0 -6 -8 -5 -19 2 -15 9 -23 9 -35
-1 -26 -22 -123 -22 -149 0 -12 10 -16 18 -9 19 6 0 12 8 12 19 0 12 11 22 33
29 43 13 57 14 57 2z m410 0 c-67 -19 -80 -20 -80 -8 0 9 18 13 53 14 36 1 44
-1 27 -6z m-101 -25 c-3 -2 -24 -8 -47 -13 -34 -8 -41 -7 -33 2 6 7 27 13 47
14 20 1 35 0 33 -3z m-455 -14 c4 -5 -3 -7 -14 -4 -23 6 -26 13 -6 13 8 0 17
-4 20 -9z m2298 -1 c58 0 67 -2 61 -16 -4 -10 0 -20 10 -26 10 -5 17 -14 17
-19 0 -6 -4 -8 -9 -5 -5 4 -11 2 -13 -3 -2 -7 -19 -6 -48 0 -25 6 -61 8 -80 6
-103 -13 -173 -31 -240 -61 -41 -19 -94 -39 -117 -45 -24 -7 -43 -15 -43 -20
0 -4 -18 -13 -41 -20 -23 -7 -47 -15 -55 -18 -10 -4 -13 4 -10 35 4 52 12 62
47 62 38 0 34 -19 -7 -39 -32 -16 -18 -27 21 -17 16 4 25 14 25 26 0 27 40 47
205 102 33 11 69 24 80 28 11 5 35 12 53 15 17 4 32 11 32 17 0 6 10 8 23 4
12 -3 52 -6 89 -6z m135 -16 c-3 -3 -12 -4 -19 -1 -8 3 -5 6 6 6 11 1 17 -2
13 -5z m68 -3 c8 -14 -12 -23 -36 -16 -17 6 -19 9 -8 16 18 11 36 11 44 0z
m113 -3 c17 -17 15 -25 -8 -23 -25 2 -34 11 -25 24 8 14 18 14 33 -1z m-2301
-4 c-3 -3 -12 -4 -19 -1 -8 3 -5 6 6 6 11 1 17 -2 13 -5z m2120 -50 c-3 -3
-12 -4 -19 -1 -8 3 -5 6 6 6 11 1 17 -2 13 -5z m343 -19 c0 -8 -7 -15 -15 -15
-16 0 -20 12 -8 23 11 12 23 8 23 -8z m-25 -115 c3 -5 1 -10 -4 -10 -6 0 -11
5 -11 10 0 6 2 10 4 10 3 0 8 -4 11 -10z m-1035 -21 c0 -5 -30 -24 -67 -42
-38 -17 -86 -43 -108 -58 -22 -14 -51 -29 -65 -32 -24 -6 -24 -5 5 18 17 14
34 25 38 25 4 0 13 5 20 11 18 16 68 47 122 77 26 14 55 15 55 1z m-81 -156
c-63 -71 -152 -153 -160 -147 -6 3 -17 0 -25 -7 -8 -6 -17 -9 -20 -6 -6 6 36
46 80 76 12 8 30 24 41 35 21 21 96 76 104 76 3 0 -6 -12 -20 -27z m-255 1
c23 -9 20 -24 -5 -24 -12 0 -32 -11 -45 -25 -13 -14 -27 -25 -32 -25 -5 0 -17
-9 -27 -20 -26 -28 -36 -25 -24 9 13 36 48 69 85 81 16 4 30 9 31 9 1 1 8 -2
17 -5z m96 -162 c0 -5 -12 -19 -26 -33 l-26 -24 19 32 c17 31 33 43 33 25z
m-300 -42 c0 -5 -4 -10 -10 -10 -5 0 -10 5 -10 10 0 6 5 10 10 10 6 0 10 -4
10 -10z m-1 -54 c9 -11 8 -15 -5 -20 -20 -8 -39 7 -30 23 10 15 21 14 35 -3z
m221 7 c0 -4 -16 -21 -35 -38 -28 -26 -35 -29 -40 -16 -3 8 -3 12 1 8 10 -10
44 22 38 37 -2 6 5 12 16 13 11 1 20 -1 20 -4z m-114 -121 c-21 -20 -35 -30
-30 -22 5 8 9 24 9 35 0 15 6 19 24 17 18 -2 22 1 17 15 -6 15 -5 16 6 5 10
-10 5 -19 -26 -50z m-327 -9 c-32 -41 -81 -87 -75 -70 3 10 6 25 6 33 0 9 4
13 9 9 5 -3 22 6 37 20 31 29 42 33 23 8z m-161 -84 c2 -17 -3 -29 -13 -33
-13 -4 -15 -1 -10 14 5 14 2 20 -9 20 -9 0 -16 -8 -16 -19 0 -20 -46 -36 -48
-17 0 6 -4 21 -7 33 -6 19 -3 22 27 26 61 8 73 4 76 -24z m1665 -6 c-3 -8 -18
-17 -34 -20 -16 -3 -29 -9 -29 -13 0 -5 -14 -12 -32 -15 -55 -12 -226 -120
-267 -169 -58 -67 -100 -188 -101 -286 0 -54 -4 -59 -54 -85 -38 -19 -61 -56
-52 -82 3 -7 1 -13 -5 -13 -5 0 -2 -12 7 -26 l17 -25 -29 7 c-16 4 -41 20 -57
36 -15 15 -34 28 -42 28 -9 0 -20 11 -25 25 -5 14 -14 25 -20 25 -5 0 -10 11
-10 25 0 23 -8 29 -35 26 -6 0 -27 27 -48 60 l-39 61 15 47 c17 54 29 104 27
110 -1 2 5 8 14 13 9 5 16 15 16 22 0 16 39 52 65 60 11 3 25 16 30 28 6 13
19 25 30 27 11 2 24 9 28 17 4 8 14 14 21 14 7 0 26 6 42 14 47 23 74 29 74
16 0 -7 6 -5 16 4 8 9 31 16 51 16 26 0 34 4 30 14 -6 15 38 26 111 26 24 0
42 5 42 11 0 8 14 10 40 6 23 -3 40 -1 40 5 0 5 34 8 84 7 66 -2 83 -6 79 -16z
m-1648 -103 c-3 -5 -10 -10 -16 -10 -5 0 -9 5 -9 10 0 6 7 10 16 10 8 0 12 -4
9 -10z m1801 -92 c55 -24 153 -97 153 -114 1 -7 8 -15 17 -18 9 -4 14 -9 11
-12 -3 -3 -38 19 -79 49 -40 30 -92 64 -115 76 -78 39 -67 55 13 19z m-1944
-100 c-9 -9 -15 -9 -24 0 -10 10 -10 15 2 22 20 12 38 -6 22 -22z m-187 -27
c7 -12 -12 -24 -25 -16 -11 7 -4 25 10 25 5 0 11 -4 15 -9z m852 -108 c-8 -26
-29 -104 -47 -173 -46 -182 -136 -449 -161 -474 -5 -6 -9 -22 -9 -37 0 -15 -4
-30 -9 -33 -5 -3 -11 -23 -14 -43 -3 -21 -15 -76 -27 -123 -44 -171 -53 -341
-25 -490 0 -3 8 -27 18 -55 9 -27 19 -66 21 -85 3 -19 10 -51 15 -70 13 -43
14 -50 2 -50 -5 0 -13 12 -18 26 -6 19 -17 28 -37 30 -37 4 -42 10 -22 30 10
10 14 23 10 33 -4 9 -9 28 -11 43 -4 20 -12 28 -32 30 -35 4 -43 51 -12 68 26
13 27 40 3 40 -11 0 -24 11 -30 25 -17 36 -15 45 9 45 19 0 20 4 15 33 -3 17
-9 60 -12 95 -5 47 -10 62 -20 58 -19 -7 -27 10 -14 34 8 16 7 25 -7 45 -21
28 -33 32 -33 9 0 -13 -3 -14 -15 -4 -8 7 -12 16 -9 21 3 5 0 17 -5 27 -14 27
-20 91 -9 98 5 3 2 14 -8 25 -9 10 -20 16 -24 14 -4 -3 -10 12 -13 33 -5 26
-2 41 8 52 9 8 15 10 15 3 0 -6 -4 -13 -10 -15 -6 -2 -6 -8 0 -18 8 -13 10
-12 10 3 0 23 16 22 23 -3 6 -22 37 -28 37 -7 0 7 7 4 15 -7 8 -11 15 -14 15
-7 0 7 5 9 10 6 12 -7 14 65 2 80 -9 12 -74 16 -66 4 3 -5 11 -9 19 -9 15 0
24 -19 18 -36 -5 -15 -55 -3 -61 14 -2 7 2 12 8 12 7 0 9 8 5 21 -6 19 -4 21
17 16 22 -6 26 -2 41 46 20 59 44 93 79 106 l23 10 -23 0 c-13 1 -21 5 -17 11
3 5 13 6 22 3 11 -4 14 -3 9 6 -9 14 18 76 38 88 7 4 21 29 31 56 12 33 23 47
36 47 11 0 19 7 19 15 0 7 6 18 13 22 8 4 22 20 32 36 9 15 26 27 37 27 10 0
16 5 13 10 -11 17 7 11 21 -7 11 -15 13 -16 17 -3 3 8 13 42 22 75 26 86 59
175 64 170 2 -2 -3 -26 -12 -52z m1466 30 c-7 -2 -19 -2 -25 0 -7 3 -2 5 12 5
14 0 19 -2 13 -5z m-2234 -65 c-17 -34 -19 -34 -19 -5 0 18 5 27 15 27 13 0
14 -4 4 -22z m2261 -43 c0 -17 -2 -18 -24 -9 -23 9 -20 24 4 24 11 0 20 -7 20
-15z m-2426 -46 c-3 -5 -10 -7 -15 -3 -5 3 -7 10 -3 15 3 5 10 7 15 3 5 -3 7
-10 3 -15z m2516 -34 c0 -25 -4 -45 -10 -45 -11 0 -13 33 -4 68 10 34 14 27
14 -23z m156 30 c24 -18 7 -19 -26 0 -16 9 -19 14 -9 15 8 0 24 -7 35 -15z
m-53 -50 c7 -16 -8 -29 -23 -20 -10 6 -2 35 10 35 4 0 10 -7 13 -15z m-2493
-25 c0 -5 -4 -10 -10 -10 -5 0 -10 5 -10 10 0 6 5 10 10 10 6 0 10 -4 10 -10z
m-130 -39 c0 -10 -8 -21 -17 -24 -10 -2 -26 -8 -35 -12 -14 -5 -18 -2 -18 13
0 22 24 41 53 42 10 0 17 -7 17 -19z m2500 9 c0 -5 -4 -10 -10 -10 -5 0 -10 5
-10 10 0 6 5 10 10 10 6 0 10 -4 10 -10z m-467 -41 c72 -11 167 -50 190 -77
10 -13 8 -14 -17 -10 -22 4 -35 0 -53 -18 -13 -13 -22 -28 -19 -33 3 -5 -5
-16 -18 -24 -23 -16 -49 -21 -143 -32 -49 -5 -53 -4 -53 15 0 13 -7 20 -20 20
-11 0 -20 -7 -20 -15 0 -25 -15 -17 -27 15 -11 30 -13 30 -67 26 -39 -3 -72 1
-110 15 -31 10 -63 19 -71 19 -9 0 -30 8 -48 17 -18 9 -38 16 -44 15 -22 -5
-14 15 9 21 33 9 236 -12 295 -30 61 -18 78 -14 87 23 6 21 40 62 54 64 2 0
36 -5 75 -11z m-1977 -16 c-5 -15 -3 -14 10 2 16 20 16 19 10 -5 -3 -14 -6
-33 -6 -42 0 -24 -17 -23 -30 2 -8 14 -7 25 2 40 16 25 22 26 14 3z m868 1
c21 -8 21 -24 0 -24 -14 0 -15 -2 -3 -17 12 -14 12 -16 -1 -11 -8 2 -16 17
-18 31 -4 29 -2 30 22 21z m1750 -23 c15 -17 15 -19 0 -32 -21 -17 -116 -18
-136 -1 -8 6 -19 9 -24 5 -5 -4 -4 -2 2 6 7 7 29 15 50 17 69 7 74 8 74 16 0
14 16 9 34 -11z m-130 -66 c-4 -8 -8 -15 -10 -15 -2 0 -4 7 -4 15 0 8 4 15 10
15 5 0 7 -7 4 -15z m-2819 -25 c3 -5 1 -10 -4 -10 -6 0 -11 5 -11 10 0 6 2 10
4 10 3 0 8 -4 11 -10z m2681 -10 c11 0 12 -4 5 -18 -6 -10 -7 -28 -4 -40 3
-13 1 -22 -6 -22 -6 0 -11 7 -11 15 0 8 -5 15 -11 15 -5 0 -7 -4 -4 -10 3 -5
-1 -10 -9 -10 -14 0 -14 -3 2 -18 9 -11 20 -17 25 -15 4 2 7 -1 7 -6 0 -6 -4
-11 -8 -11 -5 0 -15 -11 -22 -25 -8 -14 -19 -24 -26 -21 -7 3 -20 -4 -29 -14
-10 -11 -22 -17 -27 -14 -5 3 -16 3 -24 0 -12 -5 -13 -10 -3 -27 12 -23 -1
-40 -31 -38 -8 1 -17 0 -20 -1 -3 -1 -18 -4 -35 -7 -125 -18 -206 -5 -224 34
-8 18 -19 23 -50 23 -22 0 -42 4 -45 9 -7 11 17 21 48 21 24 0 181 39 286 71
35 11 85 33 111 49 25 17 51 30 58 30 8 0 10 7 6 22 -6 17 -4 20 10 15 9 -4
23 -7 31 -7z m244 -9 c0 -12 -8 -21 -22 -24 -19 -3 -17 -5 7 -6 l30 -2 -25
-10 c-28 -11 -110 6 -110 23 0 6 8 7 18 3 19 -7 22 -8 40 -6 6 0 12 7 12 15 0
14 14 24 38 25 6 1 12 -8 12 -18z m-1495 -51 c22 -11 33 -19 25 -19 -8 0 -31
8 -50 19 -46 25 -27 25 25 0z m-1231 -11 c-3 -5 -17 -9 -31 -9 -21 0 -23 3
-14 14 12 15 55 10 45 -5z m1903 -25 c-48 -35 -67 -41 -119 -36 -45 4 -69 22
-30 22 9 0 38 11 63 23 32 16 59 22 83 19 l36 -4 -33 -24z m767 11 c3 -8 1
-15 -4 -15 -6 0 -10 7 -10 15 0 8 2 15 4 15 2 0 6 -7 10 -15z m-3390 -79 c-5
-14 -13 -26 -19 -25 -5 1 -8 6 -6 13 2 6 6 27 9 46 4 32 6 33 15 13 5 -12 6
-32 1 -47z m696 46 c0 -5 -14 -19 -32 -32 -30 -22 -32 -22 -45 -5 -18 26 -16
37 5 26 12 -6 23 -5 37 5 21 16 35 18 35 6z m3570 -76 c0 -3 -4 -8 -10 -11 -5
-3 -10 -1 -10 4 0 6 5 11 10 11 6 0 10 -2 10 -4z m-4251 -30 c7 -8 8 -16 4
-18 -4 -1 -20 -22 -36 -45 -15 -24 -34 -43 -42 -43 -12 0 -11 7 4 43 10 23 16
48 13 56 -3 8 0 11 7 7 6 -4 11 -2 11 3 0 16 26 13 39 -3z m61 -11 c0 -14 -5
-25 -10 -25 -7 0 -10 -21 -8 -52 2 -42 0 -53 -12 -53 -12 0 -15 11 -13 50 1
27 7 51 13 53 5 2 10 15 10 28 0 13 5 24 10 24 6 0 10 -11 10 -25z m3451 -57
c-11 -18 -36 -48 -56 -67 -34 -33 -35 -35 -18 -54 10 -11 12 -17 6 -13 -17 9
-58 17 -50 9 4 -3 -14 -29 -40 -57 -86 -96 -110 -146 -67 -146 15 0 19 -12 7
-23 -3 -4 -16 2 -28 13 l-22 21 -53 -117 c-29 -64 -68 -159 -86 -212 -23 -65
-45 -108 -67 -132 -19 -19 -49 -55 -67 -80 -19 -25 -48 -61 -65 -81 -16 -19
-39 -47 -50 -61 -34 -43 -146 -121 -240 -166 -50 -24 -97 -48 -105 -53 -39
-23 -116 -53 -340 -133 -25 -9 -67 -16 -92 -16 -26 0 -59 -5 -73 -12 -23 -10
-28 -8 -54 18 -16 17 -32 47 -36 67 -7 36 -6 37 21 37 35 0 193 37 208 49 6 4
24 11 39 15 16 4 46 18 68 31 21 14 45 25 53 25 10 0 13 6 10 15 -4 8 -1 15 5
15 6 0 11 -6 11 -12 0 -8 5 -6 11 4 5 9 16 15 24 12 17 -7 105 33 105 48 0 6
11 8 25 6 17 -4 25 -1 25 8 0 8 5 14 10 14 6 0 10 9 10 19 0 31 18 34 43 9 13
-13 30 -22 36 -20 8 3 2 12 -16 23 -15 10 -22 19 -15 19 6 0 12 5 12 12 0 9
-3 9 -12 0 -14 -14 -28 -16 -28 -3 0 5 13 12 30 16 16 4 32 11 35 16 4 5 13 9
22 9 13 0 13 -3 3 -15 -7 -8 -9 -22 -6 -32 6 -15 8 -14 22 5 8 12 22 22 30 22
21 0 17 18 -6 25 -44 14 -5 58 40 45 30 -9 60 4 60 25 0 7 -6 16 -12 18 -11 5
26 11 59 10 6 0 9 6 6 13 -3 8 1 14 11 14 21 0 21 26 -1 34 -15 6 -13 10 10
30 15 13 27 26 27 30 0 4 7 15 16 24 15 15 16 14 9 -8 l-7 -25 17 23 c10 13
19 38 20 55 2 23 11 37 31 49 17 11 28 25 26 34 -2 9 0 20 5 23 4 3 19 23 33
43 14 21 34 39 45 40 11 2 21 9 21 16 1 6 2 17 3 22 0 6 8 10 16 10 8 0 15 8
15 18 0 12 3 13 8 5 6 -9 13 -3 26 17 16 29 38 56 86 106 11 12 20 25 20 30 0
5 14 18 30 29 17 11 28 25 26 32 -3 8 1 10 11 6 13 -5 15 -2 10 11 -5 13 -3
17 7 13 8 -3 13 1 12 11 -1 10 6 16 16 16 10 -1 16 2 13 6 -2 4 4 16 14 26 10
11 32 39 49 63 18 24 32 40 32 36 0 -5 5 -4 12 3 21 21 21 4 -1 -30z m571 5
c23 -21 23 -33 0 -33 -21 0 -42 18 -42 37 0 18 20 16 42 -4z m528 -18 c0 -8
-7 -11 -20 -8 -23 6 -26 19 -7 26 16 6 27 -1 27 -18z m-683 -41 c3 -8 12 -13
19 -10 8 3 14 2 14 -3 0 -5 10 -11 22 -15 23 -5 43 6 43 26 0 6 23 11 53 12
48 1 52 -1 52 -21 0 -19 6 -23 31 -23 17 0 28 -4 24 -10 -3 -5 -1 -10 4 -10 6
0 11 -4 11 -9 0 -5 -8 -7 -17 -5 -28 7 -40 -8 -47 -56 -3 -25 -11 -46 -16 -48
-16 -6 -12 -55 6 -81 13 -18 23 -22 44 -17 24 4 33 -1 54 -29 14 -18 26 -38
26 -44 0 -18 20 -22 36 -7 19 20 28 20 44 1 10 -12 10 -18 0 -30 -15 -18 -36
-19 -44 -2 -3 6 -3 1 0 -11 7 -30 -25 -62 -61 -62 -15 0 -23 -4 -20 -10 3 -5
-3 -19 -13 -31 -19 -20 -21 -20 -41 -3 -12 10 -21 23 -21 30 0 14 -32 14 -43
0 -6 -7 -7 -5 -4 6 3 9 -3 28 -14 41 -25 33 -25 51 1 44 13 -3 20 0 20 9 0 8
-7 14 -15 14 -18 0 -20 16 -2 23 8 3 11 22 8 62 -3 58 -21 60 -21 3 0 -16 -4
-28 -10 -28 -5 0 -10 5 -10 11 0 5 -4 7 -10 4 -5 -3 -7 -26 -3 -52 l6 -46 -27
7 -27 7 7 -48 c8 -57 16 -69 52 -76 29 -7 82 -48 82 -65 0 -5 -17 -17 -37 -27
-21 -9 -70 -33 -110 -52 -75 -36 -114 -49 -198 -63 -79 -14 -285 -29 -477 -36
-222 -8 -256 -1 -209 43 10 10 26 34 36 53 10 19 29 43 43 54 22 17 58 81 54
97 0 3 26 30 60 60 72 63 103 95 141 143 16 20 33 36 38 36 5 0 26 7 47 16 20
8 37 14 37 12 0 -2 13 7 29 20 16 12 33 22 38 22 6 0 32 14 59 31 36 24 55 45
75 88 27 56 27 56 36 29 11 -33 28 -35 53 -8 10 11 24 20 30 20 7 0 15 7 19
15 7 20 35 19 43 -1z m721 -43 c37 -2 26 -35 -28 -88 -28 -26 -56 -50 -63 -52
-7 -2 -24 -17 -38 -34 -30 -36 -59 -32 -59 8 0 18 7 28 24 35 23 8 43 63 37
98 -4 26 19 40 62 37 23 -2 52 -4 65 -4z m-3598 -10 c0 -5 -9 -7 -20 -4 -11 3
-20 7 -20 9 0 2 9 4 20 4 11 0 20 -4 20 -9z m2463 -19 c18 10 22 2 11 -26 -10
-25 -31 -19 -56 17 l-23 32 26 -16 c18 -12 30 -14 42 -7z m-2303 -2 c0 -5 -4
-10 -10 -10 -5 0 -10 5 -10 10 0 6 5 10 10 10 6 0 10 -4 10 -10z m-185 -50
c-10 -11 -24 -20 -32 -20 -16 0 -17 -22 0 -39 10 -10 7 -10 -15 0 -33 14 -34
23 -10 48 18 19 38 29 61 30 11 1 10 -4 -4 -19z m3155 4 c0 -8 -5 -12 -10 -9
-6 4 -8 11 -5 16 9 14 15 11 15 -7z m35 -94 c3 -5 1 -10 -4 -10 -6 0 -11 5
-11 10 0 6 2 10 4 10 3 0 8 -4 11 -10z m236 -45 c15 10 10 -7 -8 -27 -23 -25
-43 -23 -43 7 0 28 33 53 38 29 2 -8 8 -12 13 -9z m-3381 11 c0 -3 -4 -8 -10
-11 -5 -3 -10 -1 -10 4 0 6 5 11 10 11 6 0 10 -2 10 -4z m14 -54 c2 -4 1 -14
-5 -22 -7 -13 -9 -12 -9 2 0 11 -5 15 -15 12 -8 -4 -15 -1 -15 5 0 13 36 15
44 3z m1900 -207 c-4 -8 -11 -15 -16 -15 -6 0 -5 6 2 15 7 8 14 15 16 15 2 0
1 -7 -2 -15z m-1690 -54 c6 -9 -44 -35 -52 -27 -7 8 19 36 34 36 7 0 15 -4 18
-9z m9 -66 c1 -5 -6 -11 -15 -13 -11 -2 -18 3 -18 13 0 17 30 18 33 0z m-1033
-75 c0 -5 -2 -10 -4 -10 -3 0 -8 5 -11 10 -3 6 -1 10 4 10 6 0 11 -4 11 -10z
m-180 -9 c0 -12 -20 -25 -27 -18 -7 7 6 27 18 27 5 0 9 -4 9 -9z m1258 -18 c2
-13 10 -23 18 -23 15 0 19 -12 7 -23 -3 -4 -11 -2 -18 3 -7 6 -23 6 -42 1 -33
-10 -63 2 -63 24 0 46 92 62 98 18z m-1098 -9 c0 -8 -5 -12 -10 -9 -6 4 -8 11
-5 16 9 14 15 11 15 -7z m-1260 -2 c0 -11 -22 -32 -32 -32 -5 0 -4 9 2 20 11
20 30 28 30 12z m3763 -32 c-6 -24 -23 -37 -23 -18 0 12 18 38 26 38 1 0 0 -9
-3 -20z m-1443 -30 c0 -5 -4 -10 -10 -10 -5 0 -10 5 -10 10 0 6 5 10 10 10 6
0 10 -4 10 -10z m-1127 -35 c-3 -9 -8 -14 -10 -11 -3 3 -2 9 2 15 9 16 15 13
8 -4z m-56 -47 c-3 -8 -6 -5 -6 6 -1 11 2 17 5 13 3 -3 4 -12 1 -19z m1392
-44 c12 -28 9 -40 -7 -30 -12 7 -22 56 -12 56 4 0 12 -12 19 -26z m-1489 -23
c0 -22 -16 -36 -24 -22 -8 12 3 41 15 41 5 0 9 -9 9 -19z m2005 -541 c-3 -5
-21 -10 -38 -9 -27 0 -29 2 -12 9 28 12 57 12 50 0z m2305 -100 c0 -5 -2 -10
-4 -10 -3 0 -8 5 -11 10 -3 6 -1 10 4 10 6 0 11 -4 11 -10z m-3850 -192 c0
-17 -17 -7 -39 23 l-23 31 31 -23 c17 -12 31 -26 31 -31z m20 22 c0 -5 -4 -10
-10 -10 -5 0 -10 5 -10 10 0 6 5 10 10 10 6 0 10 -4 10 -10z m20 -24 c0 -3 -4
-8 -10 -11 -5 -3 -10 -1 -10 4 0 6 5 11 10 11 6 0 10 -2 10 -4z m97 -142 c-3
-3 -12 -4 -19 -1 -8 3 -5 6 6 6 11 1 17 -2 13 -5z m2713 -378 c0 -3 -4 -8 -10
-11 -5 -3 -10 -1 -10 4 0 6 5 11 10 11 6 0 10 -2 10 -4z m-259 -167 c31 -16
13 -28 -26 -16 -19 5 -32 14 -29 19 7 11 31 10 55 -3z m-751 -19 c0 -5 -6 -10
-14 -10 -8 0 -21 -3 -30 -6 -9 -3 -16 -1 -16 4 0 10 19 18 48 21 6 0 12 -3 12
-9z m1448 -46 c3 -13 -40 -12 -45 1 -2 6 7 10 19 10 13 -1 24 -6 26 -11z
m-312 -46 c-10 -6 -22 -6 -26 -2 -5 5 3 10 18 11 22 1 24 0 8 -9z m-1505 -356
c-7 -2 -18 1 -23 6 -8 8 -4 9 13 5 13 -4 18 -8 10 -11z"/>
<path d="M3480 7186 c0 -8 5 -18 11 -22 6 -3 9 -19 6 -34 -5 -22 0 -31 23 -49
40 -29 52 -27 48 9 -1 18 3 34 10 39 10 6 10 10 -2 20 -8 7 -20 10 -25 7 -5
-4 -12 -2 -16 4 -4 6 -12 7 -18 4 -7 -4 -9 -4 -5 1 9 9 -9 35 -23 35 -5 0 -9
-6 -9 -14z"/>
<path d="M3435 7170 c3 -5 13 -10 21 -10 8 0 14 5 14 10 0 6 -9 10 -21 10 -11
0 -17 -4 -14 -10z"/>
<path d="M3620 7075 c0 -9 5 -15 11 -13 6 2 11 8 11 13 0 5 -5 11 -11 13 -6 2
-11 -4 -11 -13z"/>
<path d="M3478 7008 c9 -9 15 -9 24 0 9 9 7 12 -12 12 -19 0 -21 -3 -12 -12z"/>
<path d="M3590 6980 c0 -5 5 -10 11 -10 5 0 7 5 4 10 -3 6 -8 10 -11 10 -2 0
-4 -4 -4 -10z"/>
<path d="M3341 6952 c-7 -14 -6 -18 8 -18 12 0 17 6 13 18 -2 10 -6 18 -8 18
-2 0 -8 -8 -13 -18z"/>
<path d="M3405 6880 c3 -5 8 -10 11 -10 2 0 4 5 4 10 0 6 -5 10 -11 10 -5 0
-7 -4 -4 -10z"/>
<path d="M3435 6861 c-2 -4 8 -11 21 -18 20 -9 26 -8 34 6 7 15 4 18 -21 18
-16 0 -32 -3 -34 -6z"/>
<path d="M3294 3525 c-4 -11 -9 -23 -11 -27 -6 -11 9 -10 26 1 10 6 11 13 3
27 -10 18 -11 18 -18 -1z"/>
<path d="M3132 3464 c10 -10 20 -15 24 -12 3 4 -5 12 -18 18 -22 12 -22 12 -6
-6z"/>
<path d="M3170 3399 c0 -5 5 -7 10 -4 6 3 10 8 10 11 0 2 -4 4 -10 4 -5 0 -10
-5 -10 -11z"/>
<path d="M3075 3220 c-4 -16 -11 -30 -16 -30 -5 0 -9 -9 -9 -20 0 -11 5 -20
10 -20 6 0 10 8 10 18 0 10 7 27 15 38 16 22 19 44 6 44 -5 0 -12 -13 -16 -30z"/>
<path d="M4620 2510 c0 -5 5 -10 10 -10 6 0 10 5 10 10 0 6 -4 10 -10 10 -5 0
-10 -4 -10 -10z"/>
<path d="M4575 2460 c-3 -5 1 -10 9 -10 8 0 18 5 21 10 3 6 -1 10 -9 10 -8 0
-18 -4 -21 -10z"/>
<path d="M5864 3275 c-8 -20 4 -65 16 -65 12 0 24 45 16 65 -3 8 -10 15 -16
15 -6 0 -13 -7 -16 -15z"/>
<path d="M5775 3270 c-3 -5 -1 -10 4 -10 6 0 11 5 11 10 0 6 -2 10 -4 10 -3 0
-8 -4 -11 -10z"/>
<path d="M5870 3164 c0 -17 22 -14 28 4 2 7 -3 12 -12 12 -9 0 -16 -7 -16 -16z"/>
<path d="M5361 3039 c12 -53 0 -69 -56 -69 -34 0 -44 -4 -48 -20 -5 -19 -1
-20 89 -19 l94 1 0 27 c0 36 -28 74 -50 68 -13 -3 -16 0 -13 12 2 10 -2 23
-10 30 -13 10 -14 6 -6 -30z"/>
<path d="M5914 3009 c-8 -13 13 -29 40 -29 12 0 16 5 12 16 -3 9 -6 18 -6 20
0 9 -39 3 -46 -7z"/>
<path d="M5180 2957 c0 -15 36 -47 52 -47 5 0 8 7 8 15 0 8 -5 15 -11 15 -5 0
-7 5 -4 10 3 6 2 10 -4 10 -5 0 -16 3 -25 6 -10 4 -16 1 -16 -9z"/>
<path d="M5400 2890 c0 -15 -103 -59 -132 -55 -59 7 -87 17 -90 33 -3 11 -6 7
-10 -11 -5 -24 -1 -30 19 -38 33 -12 115 -11 150 2 46 17 103 79 73 79 -5 0
-10 -4 -10 -10z"/>
</g>
</svg>
